<?xml version="1.0" encoding="UTF-8"?>
<svg xmlns="http://www.w3.org/2000/svg" width="560" height="1104" viewBox="0 0 560 1104" font-family="sans-serif" font-size="12">
  <title>Memory map</title>
  <desc>Memory map: 18 region(s).</desc>
  <defs><marker id="arrow" markerWidth="8" markerHeight="8" refX="7" refY="3" orient="auto"><path d="M0,0 L7,3 L0,6 z" fill="#000000"/></marker></defs>
  <rect x="20" y="20" width="520" height="44" fill="#ffffff" stroke="#000000"/>
  <text x="280" y="36" text-anchor="middle">Memory map (base / end / size / block)</text>
  <rect x="20" y="76" width="520" height="44" fill="#ffffff" stroke="#000000"/>
  <text x="280" y="92" text-anchor="middle">rom</text>
  <text x="280" y="108" text-anchor="middle">0x00000000 .. 0x00000800  size 0x00000800  block rom</text>
  <rect x="20" y="132" width="520" height="44" fill="#ffffff" stroke="#000000"/>
  <text x="280" y="148" text-anchor="middle">isram_dbg</text>
  <text x="280" y="164" text-anchor="middle">0x20000000 .. 0x20001000  size 0x00001000  block isram_dbg</text>
  <rect x="20" y="188" width="520" height="44" fill="#ffffff" stroke="#000000"/>
  <text x="280" y="204" text-anchor="middle">isram</text>
  <text x="280" y="220" text-anchor="middle">0x20001000 .. 0x20010000  size 0x0000f000  block isram</text>
  <rect x="20" y="244" width="520" height="44" fill="#ffffff" stroke="#000000"/>
  <text x="280" y="260" text-anchor="middle">dsram</text>
  <text x="280" y="276" text-anchor="middle">0x30000000 .. 0x30008000  size 0x00008000  block dsram</text>
  <rect x="20" y="300" width="520" height="44" fill="#ffffff" stroke="#000000"/>
  <text x="280" y="316" text-anchor="middle">scrc</text>
  <text x="280" y="332" text-anchor="middle">0x80000000 .. 0x80004000  size 0x00004000  block scrc</text>
  <rect x="20" y="356" width="520" height="44" fill="#ffffff" stroke="#000000"/>
  <text x="280" y="372" text-anchor="middle">syscsr</text>
  <text x="280" y="388" text-anchor="middle">0x80004000 .. 0x80008000  size 0x00004000  block syscsr</text>
  <rect x="20" y="412" width="520" height="44" fill="#ffffff" stroke="#000000"/>
  <text x="280" y="428" text-anchor="middle">wdt</text>
  <text x="280" y="444" text-anchor="middle">0x80008000 .. 0x8000c000  size 0x00004000  block wdt</text>
  <rect x="20" y="468" width="520" height="44" fill="#ffffff" stroke="#000000"/>
  <text x="280" y="484" text-anchor="middle">gpio_0</text>
  <text x="280" y="500" text-anchor="middle">0x8000c000 .. 0x80010000  size 0x00004000  block gpio_0</text>
  <rect x="20" y="524" width="520" height="44" fill="#ffffff" stroke="#000000"/>
  <text x="280" y="540" text-anchor="middle">gpio_1</text>
  <text x="280" y="556" text-anchor="middle">0x80010000 .. 0x80014000  size 0x00004000  block gpio_1</text>
  <rect x="20" y="580" width="520" height="44" fill="#ffffff" stroke="#000000"/>
  <text x="280" y="596" text-anchor="middle">gpio_2</text>
  <text x="280" y="612" text-anchor="middle">0x80014000 .. 0x80018000  size 0x00004000  block gpio_2</text>
  <rect x="20" y="636" width="520" height="44" fill="#ffffff" stroke="#000000"/>
  <text x="280" y="652" text-anchor="middle">timer_0</text>
  <text x="280" y="668" text-anchor="middle">0x80018000 .. 0x8001c000  size 0x00004000  block timer_0</text>
  <rect x="20" y="692" width="520" height="44" fill="#ffffff" stroke="#000000"/>
  <text x="280" y="708" text-anchor="middle">timer_1</text>
  <text x="280" y="724" text-anchor="middle">0x8001c000 .. 0x80020000  size 0x00004000  block timer_1</text>
  <rect x="20" y="748" width="520" height="44" fill="#ffffff" stroke="#000000"/>
  <text x="280" y="764" text-anchor="middle">uart_0</text>
  <text x="280" y="780" text-anchor="middle">0x80020000 .. 0x80024000  size 0x00004000  block uart_0</text>
  <rect x="20" y="804" width="520" height="44" fill="#ffffff" stroke="#000000"/>
  <text x="280" y="820" text-anchor="middle">uart_1</text>
  <text x="280" y="836" text-anchor="middle">0x80024000 .. 0x80028000  size 0x00004000  block uart_1</text>
  <rect x="20" y="860" width="520" height="44" fill="#ffffff" stroke="#000000"/>
  <text x="280" y="876" text-anchor="middle">spi</text>
  <text x="280" y="892" text-anchor="middle">0x80028000 .. 0x8002c000  size 0x00004000  block spi</text>
  <rect x="20" y="916" width="520" height="44" fill="#ffffff" stroke="#000000"/>
  <text x="280" y="932" text-anchor="middle">i2c</text>
  <text x="280" y="948" text-anchor="middle">0x8002c000 .. 0x80030000  size 0x00004000  block i2c</text>
  <rect x="20" y="972" width="520" height="44" fill="#ffffff" stroke="#000000"/>
  <text x="280" y="988" text-anchor="middle">pwm</text>
  <text x="280" y="1004" text-anchor="middle">0x80030000 .. 0x80034000  size 0x00004000  block pwm</text>
  <rect x="20" y="1028" width="520" height="44" fill="#ffffff" stroke="#000000"/>
  <text x="280" y="1044" text-anchor="middle">dma_cfg</text>
  <text x="280" y="1060" text-anchor="middle">0x80034000 .. 0x80038000  size 0x00004000  block dma_cfg</text>
</svg>
